<svg width="20" height="20" viewBox="0 0 20 20" fill="none" xmlns="http://www.w3.org/2000/svg">
<path d="M10.8332 18.3327H4.1665C2.49984 18.3327 1.6665 17.4993 1.6665 15.8327V9.16602C1.6665 7.49935 2.49984 6.66602 4.1665 6.66602H8.33317V15.8327C8.33317 17.4993 9.1665 18.3327 10.8332 18.3327Z" stroke="#27AE60" stroke-width="1.5" stroke-miterlimit="10" stroke-linecap="round" stroke-linejoin="round"/>
<path d="M8.42483 3.33398C8.35816 3.58398 8.33317 3.85898 8.33317 4.16732V6.66732H4.1665V5.00065C4.1665 4.08398 4.9165 3.33398 5.83317 3.33398H8.42483Z" stroke="#27AE60" stroke-width="1.5" stroke-miterlimit="10" stroke-linecap="round" stroke-linejoin="round"/>
<path d="M11.6665 6.66602V10.8327" stroke="#27AE60" stroke-width="1.5" stroke-miterlimit="10" stroke-linecap="round" stroke-linejoin="round"/>
<path d="M15 6.66602V10.8327" stroke="#27AE60" stroke-width="1.5" stroke-miterlimit="10" stroke-linecap="round" stroke-linejoin="round"/>
<path d="M14.1665 14.166H12.4998C12.0415 14.166 11.6665 14.541 11.6665 14.9993V18.3327H14.9998V14.9993C14.9998 14.541 14.6248 14.166 14.1665 14.166Z" stroke="#27AE60" stroke-width="1.5" stroke-miterlimit="10" stroke-linecap="round" stroke-linejoin="round"/>
<path d="M5 10.834V14.1673" stroke="#27AE60" stroke-width="1.5" stroke-miterlimit="10" stroke-linecap="round" stroke-linejoin="round"/>
<path d="M8.3335 15.8327V4.16602C8.3335 2.49935 9.16683 1.66602 10.8335 1.66602H15.8335C17.5002 1.66602 18.3335 2.49935 18.3335 4.16602V15.8327C18.3335 17.4993 17.5002 18.3327 15.8335 18.3327H10.8335C9.16683 18.3327 8.3335 17.4993 8.3335 15.8327Z" stroke="#27AE60" stroke-width="1.5" stroke-miterlimit="10" stroke-linecap="round" stroke-linejoin="round"/>
</svg>
