<svg width="250" height="200" viewBox="0 0 250 200" fill="none" xmlns="http://www.w3.org/2000/svg">
<path d="M136 64C139.866 64 143 67.134 143 71C143 74.866 139.866 78 136 78H200C203.866 78 207 81.134 207 85C207 88.866 203.866 92 200 92H222C225.866 92 229 95.134 229 99C229 102.866 225.866 106 222 106H203C199.134 106 196 109.134 196 113C196 116.866 199.134 120 203 120H209C212.866 120 216 123.134 216 127C216 130.866 212.866 134 209 134H157C156.485 134 155.983 133.944 155.5 133.839C155.017 133.944 154.515 134 154 134H63C59.134 134 56 130.866 56 127C56 123.134 59.134 120 63 120H24C20.134 120 17 116.866 17 113C17 109.134 20.134 106 24 106H64C67.866 106 71 102.866 71 99C71 95.134 67.866 92 64 92H39C35.134 92 32 88.866 32 85C32 81.134 35.134 78 39 78H79C75.134 78 72 74.866 72 71C72 67.134 75.134 64 79 64H136ZM226 120C229.866 120 233 123.134 233 127C233 130.866 229.866 134 226 134C222.134 134 219 130.866 219 127C219 123.134 222.134 120 226 120Z" fill="#E3FFEF"/>
<path d="M167.001 148H189.429M64.001 148H85.4551H64.001ZM51.1289 148H58.001H51.1289ZM194.129 148H197.001H194.129Z" stroke="#27AE60" stroke-width="2.5" stroke-linecap="round" stroke-linejoin="round"/>
<path d="M98 43.3027L109.1 55.7559M150.1 43.3027L139 55.7559L150.1 43.3027ZM124 39V55.7559V39Z" stroke="#ADFFD0" stroke-width="2.5" stroke-linecap="round" stroke-linejoin="round"/>
<path d="M111.75 145H137.25C158.5 145 167 136.5 167 115.25V89.75C167 68.5 158.5 60 137.25 60H111.75C90.5 60 82 68.5 82 89.75V115.25C82 136.5 90.5 145 111.75 145Z" stroke="#27AE60" stroke-width="3" stroke-linecap="round" stroke-linejoin="round"/>
<path d="M139.375 130.125C144.05 130.125 147.875 126.3 147.875 121.625V83.375C147.875 78.7 144.05 74.875 139.375 74.875C134.7 74.875 130.875 78.7 130.875 83.375V121.625C130.875 126.3 134.657 130.125 139.375 130.125Z" stroke="#27AE60" stroke-width="3" stroke-linecap="round" stroke-linejoin="round"/>
<path d="M109.625 130.125C114.3 130.125 118.125 126.3 118.125 121.625V106.75C118.125 102.075 114.3 98.25 109.625 98.25C104.95 98.25 101.125 102.075 101.125 106.75V121.625C101.125 126.3 104.907 130.125 109.625 130.125Z" stroke="#27AE60" stroke-width="3" stroke-linecap="round" stroke-linejoin="round"/>
</svg>
