<svg width="250" height="200" viewBox="0 0 250 200" fill="none" xmlns="http://www.w3.org/2000/svg">
<path d="M136 64C139.866 64 143 67.134 143 71C143 74.866 139.866 78 136 78H200C203.866 78 207 81.134 207 85C207 88.866 203.866 92 200 92H222C225.866 92 229 95.134 229 99C229 102.866 225.866 106 222 106H203C199.134 106 196 109.134 196 113C196 116.866 199.134 120 203 120H209C212.866 120 216 123.134 216 127C216 130.866 212.866 134 209 134H157C156.485 134 155.983 133.944 155.5 133.839C155.017 133.944 154.515 134 154 134H63C59.134 134 56 130.866 56 127C56 123.134 59.134 120 63 120H24C20.134 120 17 116.866 17 113C17 109.134 20.134 106 24 106H64C67.866 106 71 102.866 71 99C71 95.134 67.866 92 64 92H39C35.134 92 32 88.866 32 85C32 81.134 35.134 78 39 78H79C75.134 78 72 74.866 72 71C72 67.134 75.134 64 79 64H136ZM226 120C229.866 120 233 123.134 233 127C233 130.866 229.866 134 226 134C222.134 134 219 130.866 219 127C219 123.134 222.134 120 226 120Z" fill="#E3FFEF"/>
<path d="M167.001 148H189.429M64.001 148H85.4551H64.001ZM51.1289 148H58.001H51.1289ZM194.129 148H197.001H194.129Z" stroke="#27AE60" stroke-width="2.5" stroke-linecap="round" stroke-linejoin="round"/>
<path d="M98 43.3027L109.1 55.7559M150.1 43.3027L139 55.7559L150.1 43.3027ZM124 39V55.7559V39Z" stroke="#ADFFD0" stroke-width="2.5" stroke-linecap="round" stroke-linejoin="round"/>
<path d="M108.029 98.2407C107.652 98.203 107.2 98.203 106.785 98.2407C97.8139 97.9392 90.6895 90.5885 90.6895 81.5416C90.6895 72.3061 98.1532 64.8047 107.426 64.8047C116.662 64.8047 124.163 72.3061 124.163 81.5416C124.125 90.5885 117.001 97.9392 108.029 98.2407Z" stroke="#27AE60" stroke-width="3" stroke-linecap="round" stroke-linejoin="round"/>
<path d="M135.359 72.3438C142.672 72.3438 148.553 78.262 148.553 85.5372C148.553 92.6617 142.898 98.4668 135.849 98.7307C135.548 98.693 135.208 98.693 134.869 98.7307" stroke="#27AE60" stroke-width="3" stroke-linecap="round" stroke-linejoin="round"/>
<path d="M89.1816 112.15C80.0593 118.257 80.0593 128.209 89.1816 134.278C99.5479 141.214 116.549 141.214 126.915 134.278C136.037 128.171 136.037 118.219 126.915 112.15C116.586 105.252 99.5856 105.252 89.1816 112.15Z" stroke="#27AE60" stroke-width="3" stroke-linecap="round" stroke-linejoin="round"/>
<path d="M142.635 132.656C145.349 132.091 147.912 130.998 150.023 129.377C155.904 124.967 155.904 117.691 150.023 113.281C147.95 111.698 145.424 110.642 142.748 110.039" stroke="#27AE60" stroke-width="3" stroke-linecap="round" stroke-linejoin="round"/>
<path d="M157.762 63.4746L175.501 83.4311" stroke="#27AE60" stroke-width="3" stroke-linecap="round"/>
<path d="M173.283 64.583L157.762 83.4308" stroke="#27AE60" stroke-width="3" stroke-linecap="round"/>
</svg>
