<svg width="250" height="200" viewBox="0 0 250 200" fill="none" xmlns="http://www.w3.org/2000/svg">
<path d="M136 64C139.866 64 143 67.134 143 71C143 74.866 139.866 78 136 78H200C203.866 78 207 81.134 207 85C207 88.866 203.866 92 200 92H222C225.866 92 229 95.134 229 99C229 102.866 225.866 106 222 106H203C199.134 106 196 109.134 196 113C196 116.866 199.134 120 203 120H209C212.866 120 216 123.134 216 127C216 130.866 212.866 134 209 134H157C156.485 134 155.983 133.944 155.5 133.839C155.017 133.944 154.515 134 154 134H63C59.134 134 56 130.866 56 127C56 123.134 59.134 120 63 120H24C20.134 120 17 116.866 17 113C17 109.134 20.134 106 24 106H64C67.866 106 71 102.866 71 99C71 95.134 67.866 92 64 92H39C35.134 92 32 88.866 32 85C32 81.134 35.134 78 39 78H79C75.134 78 72 74.866 72 71C72 67.134 75.134 64 79 64H136ZM226 120C229.866 120 233 123.134 233 127C233 130.866 229.866 134 226 134C222.134 134 219 130.866 219 127C219 123.134 222.134 120 226 120Z" fill="#E3FFEF"/>
<path d="M98 43.3027L109.1 55.7559M150.1 43.3027L139 55.7559L150.1 43.3027ZM124 39V55.7559V39Z" stroke="#ADFFD0" stroke-width="2.5" stroke-linecap="round" stroke-linejoin="round"/>
<g clip-path="url(#clip0_2120_24079)">
<path d="M124.667 86.4997C133.411 86.4997 140.5 79.4108 140.5 70.6663C140.5 61.9218 133.411 54.833 124.667 54.833C115.922 54.833 108.833 61.9218 108.833 70.6663C108.833 79.4108 115.922 86.4997 124.667 86.4997Z" stroke="#27AE60" stroke-width="2.5" stroke-linecap="round" stroke-linejoin="round"/>
<path d="M142.167 88.1663L138.833 84.833" stroke="#27AE60" stroke-width="2.5" stroke-linecap="round" stroke-linejoin="round"/>
<path d="M82.8335 62.833V133.666C82.8335 140.583 88.4168 146.166 95.3335 146.166H166.167" stroke="#27AE60" stroke-width="3" stroke-miterlimit="10" stroke-linecap="round" stroke-linejoin="round"/>
<path d="M95.3335 125.334L114.458 103C117.625 99.3337 123.25 99.0837 126.667 102.542L130.625 106.5C134.042 109.917 139.667 109.709 142.833 106.042L162 83.667" stroke="#27AE60" stroke-width="3" stroke-miterlimit="10" stroke-linecap="round" stroke-linejoin="round"/>
</g>
<defs>
<clipPath id="clip0_2120_24079">
<rect width="100" height="104" fill="white" transform="translate(74.5 50.5)"/>
</clipPath>
</defs>
</svg>
