<svg width="250" height="200" viewBox="0 0 250 200" fill="none" xmlns="http://www.w3.org/2000/svg">
<path d="M136 64C139.866 64 143 67.134 143 71C143 74.866 139.866 78 136 78H200C203.866 78 207 81.134 207 85C207 88.866 203.866 92 200 92H222C225.866 92 229 95.134 229 99C229 102.866 225.866 106 222 106H203C199.134 106 196 109.134 196 113C196 116.866 199.134 120 203 120H209C212.866 120 216 123.134 216 127C216 130.866 212.866 134 209 134H157C156.485 134 155.983 133.944 155.5 133.839C155.017 133.944 154.515 134 154 134H63C59.134 134 56 130.866 56 127C56 123.134 59.134 120 63 120H24C20.134 120 17 116.866 17 113C17 109.134 20.134 106 24 106H64C67.866 106 71 102.866 71 99C71 95.134 67.866 92 64 92H39C35.134 92 32 88.866 32 85C32 81.134 35.134 78 39 78H79C75.134 78 72 74.866 72 71C72 67.134 75.134 64 79 64H136ZM226 120C229.866 120 233 123.134 233 127C233 130.866 229.866 134 226 134C222.134 134 219 130.866 219 127C219 123.134 222.134 120 226 120Z" fill="#E3FFEF"/>
<path d="M167 148H189.428M64 148H85.4541H64ZM51.1279 148H58H51.1279ZM194.128 148H197H194.128Z" stroke="#27AE60" stroke-width="2.5" stroke-linecap="round" stroke-linejoin="round"/>
<path d="M98 43.3027L109.1 55.7559M150.1 43.3027L139 55.7559L150.1 43.3027ZM124 39V55.7559V39Z" stroke="#ADFFD0" stroke-width="2.5" stroke-linecap="round" stroke-linejoin="round"/>
<path d="M123.5 92.5L113 83L77 92.5L88 103M123.5 92.5L88 103M123.5 92.5L159.5 104.5M123.5 92.5L137 83L173.5 92.5L159.5 104.5M123.5 92.5V104.5M88 103L73.5 118L111.5 128.5L123.5 114.5M88 103L123.5 114.5M123.5 114.5L159.5 104.5M123.5 114.5L137 128.5L175 118L159.5 104.5" stroke="#27AE60" stroke-width="2.5"/>
<path d="M124.5 115.5V158L162.5 147.5V121.717" stroke="#27AE60" stroke-width="2.5"/>
<path d="M87 122V147L123.5 158" stroke="#27AE60" stroke-width="2.5"/>
<path d="M134 58.9998L143.5 68.4998M125.5 41.9997C129.5 40 128.5 41 132 42C134.885 42.8241 132.75 46.4998 131.5 47.9998C130 49.7999 127 49.7999 125.5 47.9998C124.25 46.4998 123.753 42.8729 125.5 41.9997ZM114.5 56.4998C112.681 56.2107 111.051 57.101 110.5 58.9998C109.949 60.8987 111.405 63.2298 113.5 63.4998C115.437 63.7495 117.224 62.4328 117.5 60.4998C117.776 58.5669 116.428 56.8063 114.5 56.4998Z" stroke="#27AE60" stroke-width="2" stroke-linecap="round"/>
<path d="M143 59L134 69" stroke="#27AE60" stroke-width="2.5" stroke-linecap="round"/>
<path d="M159.5 70.0001C158.237 69.0813 156.763 69.0813 155.5 70.0001C153.763 71.2634 153.763 74.2368 155.5 75.5001C156.763 76.4189 158.237 76.4189 159.5 75.5001C161.237 74.2368 161.237 71.2634 159.5 70.0001Z" stroke="#27AE60" stroke-width="2.5"/>
<path d="M100 67.5L108 76.5" stroke="#27AE60" stroke-width="2.5" stroke-linecap="round"/>
<path d="M107 68L100 76.5" stroke="#27AE60" stroke-width="2.5" stroke-linecap="round"/>
</svg>
