<svg width="250" height="200" viewBox="0 0 250 200" fill="none" xmlns="http://www.w3.org/2000/svg">
<path d="M136 64C139.866 64 143 67.134 143 71C143 74.866 139.866 78 136 78H200C203.866 78 207 81.134 207 85C207 88.866 203.866 92 200 92H222C225.866 92 229 95.134 229 99C229 102.866 225.866 106 222 106H203C199.134 106 196 109.134 196 113C196 116.866 199.134 120 203 120H209C212.866 120 216 123.134 216 127C216 130.866 212.866 134 209 134H157C156.485 134 155.983 133.944 155.5 133.839C155.017 133.944 154.515 134 154 134H63C59.134 134 56 130.866 56 127C56 123.134 59.134 120 63 120H24C20.134 120 17 116.866 17 113C17 109.134 20.134 106 24 106H64C67.866 106 71 102.866 71 99C71 95.134 67.866 92 64 92H39C35.134 92 32 88.866 32 85C32 81.134 35.134 78 39 78H79C75.134 78 72 74.866 72 71C72 67.134 75.134 64 79 64H136ZM226 120C229.866 120 233 123.134 233 127C233 130.866 229.866 134 226 134C222.134 134 219 130.866 219 127C219 123.134 222.134 120 226 120Z" fill="#E3FFEF"/>
<path d="M167.001 148H189.429M64.001 148H85.4551H64.001ZM51.1289 148H58.001H51.1289ZM194.129 148H197.001H194.129Z" stroke="#27AE60" stroke-width="2.5" stroke-linecap="round" stroke-linejoin="round"/>
<path d="M98 43.3027L109.1 55.7559M150.1 43.3027L139 55.7559L150.1 43.3027ZM124 39V55.7559V39Z" stroke="#ADFFD0" stroke-width="2.5" stroke-linecap="round" stroke-linejoin="round"/>
<path d="M124.5 145C147.972 145 167 125.972 167 102.5C167 79.0279 147.972 60 124.5 60C101.028 60 82 79.0279 82 102.5C82 125.972 101.028 145 124.5 145Z" stroke="#27AE60" stroke-width="3" stroke-linecap="round" stroke-linejoin="round"/>
<path d="M107.501 64.25H111.751C103.463 89.07 103.463 115.93 111.751 140.75H107.501" stroke="#27AE60" stroke-width="3" stroke-linecap="round" stroke-linejoin="round"/>
<path d="M137.25 64.25C145.538 89.07 145.538 115.93 137.25 140.75" stroke="#27AE60" stroke-width="3" stroke-linecap="round" stroke-linejoin="round"/>
<path d="M86.25 119.5V115.25C111.07 123.538 137.93 123.538 162.75 115.25V119.5" stroke="#27AE60" stroke-width="3" stroke-linecap="round" stroke-linejoin="round"/>
<path d="M86.25 89.7498C111.07 81.4623 137.93 81.4623 162.75 89.7498" stroke="#27AE60" stroke-width="3" stroke-linecap="round" stroke-linejoin="round"/>
</svg>
