<svg width="20" height="20" viewBox="0 0 20 20" fill="none" xmlns="http://www.w3.org/2000/svg">
<path d="M9.99984 12.0827C11.1504 12.0827 12.0832 11.1499 12.0832 9.99935C12.0832 8.84876 11.1504 7.91602 9.99984 7.91602C8.84924 7.91602 7.9165 8.84876 7.9165 9.99935C7.9165 11.1499 8.84924 12.0827 9.99984 12.0827Z" stroke="#787878" stroke-width="1.5" stroke-miterlimit="10" stroke-linecap="round" stroke-linejoin="round"/>
<path d="M15.4165 7.91602V12.0827" stroke="#787878" stroke-width="1.5" stroke-miterlimit="10" stroke-linecap="round" stroke-linejoin="round"/>
<path d="M7.50016 14.9993C7.50016 15.6243 7.32517 16.216 7.01684 16.716C6.44184 17.6827 5.3835 18.3327 4.16683 18.3327C2.95016 18.3327 1.89182 17.6827 1.31682 16.716C1.00848 16.216 0.833496 15.6243 0.833496 14.9993C0.833496 13.1577 2.32516 11.666 4.16683 11.666C6.0085 11.666 7.50016 13.1577 7.50016 14.9993Z" stroke="#787878" stroke-width="1.5" stroke-miterlimit="10" stroke-linecap="round" stroke-linejoin="round"/>
<path d="M2.86816 14.9983L3.69316 15.8233L5.46816 14.1816" stroke="#787878" stroke-width="1.5" stroke-linecap="round" stroke-linejoin="round"/>
<path d="M1.6665 12.7506V7.50065C1.6665 4.58398 3.33317 3.33398 5.83317 3.33398H14.1665C16.6665 3.33398 18.3332 4.58398 18.3332 7.50065V12.5007C18.3332 15.4173 16.6665 16.6673 14.1665 16.6673H7.08317" stroke="#787878" stroke-width="1.5" stroke-miterlimit="10" stroke-linecap="round" stroke-linejoin="round"/>
</svg>
