<svg width="16" height="16" viewBox="0 0 16 16" fill="none" xmlns="http://www.w3.org/2000/svg">
<path d="M9.66683 10.2935H6.3335" stroke="#9333EA" stroke-miterlimit="10" stroke-linecap="round" stroke-linejoin="round"/>
<path d="M8 8.6665V11.9998" stroke="#9333EA" stroke-miterlimit="10" stroke-linecap="round" stroke-linejoin="round"/>
<path d="M8 14.6667H5.4C5.24 14.6667 5.08 14.6534 4.92667 14.6334C2.80667 14.4934 1.67333 13.36 1.53333 11.24C1.51333 11.0867 1.5 10.9267 1.5 10.7667V9.46671C1.5 8.12671 2.31333 6.97338 3.47333 6.47338C3.87333 6.30671 4.3 6.21338 4.75333 6.21338H11.26C11.5867 6.21338 11.9067 6.26005 12.2 6.34671C13.5333 6.74671 14.5067 7.99338 14.5067 9.46005V10.76C14.5067 10.8934 14.5 11.0267 14.4933 11.16C14.3667 13.4934 13.0667 14.6667 10.6 14.6667" stroke="#9333EA" stroke-linecap="round" stroke-linejoin="round"/>
<path d="M8.60013 1.6799L8.58013 1.72656L6.6468 6.21323H4.7468C4.29346 6.21323 3.86013 6.30656 3.4668 6.47323L4.63346 3.68656L4.66013 3.6199L4.7068 3.51323C4.72013 3.47323 4.73346 3.43323 4.75346 3.3999C5.6268 1.3799 6.61346 0.919897 8.60013 1.6799Z" stroke="#9333EA" stroke-linecap="round" stroke-linejoin="round"/>
<path d="M12.1936 6.34684C11.8936 6.25351 11.5736 6.21351 11.2536 6.21351H6.64697L8.58031 1.72684L8.60031 1.68018C8.70031 1.71351 8.79364 1.76018 8.89364 1.80018L10.367 2.42018C11.187 2.76018 11.7603 3.11351 12.107 3.54018C12.1736 3.62018 12.227 3.69351 12.2736 3.78018C12.3336 3.87351 12.3803 3.96684 12.407 4.06684C12.4336 4.12684 12.4536 4.18684 12.467 4.24018C12.647 4.80018 12.5403 5.48684 12.1936 6.34684Z" stroke="#9333EA" stroke-linecap="round" stroke-linejoin="round"/>
<path d="M4.63365 3.68652L3.46699 6.47319C2.30699 6.97319 1.49365 8.12652 1.49365 9.46652V7.51319C1.49365 5.61986 2.84032 4.03986 4.63365 3.68652Z" stroke="#9333EA" stroke-linecap="round" stroke-linejoin="round"/>
<path d="M14.5064 7.51307V9.46641C14.5064 7.99974 13.533 6.75307 12.1997 6.35307C12.5464 5.48641 12.6464 4.80641 12.4797 4.23974C12.4664 4.17974 12.4464 4.11974 12.4197 4.06641C13.6597 4.70641 14.5064 6.01974 14.5064 7.51307Z" stroke="#9333EA" stroke-linecap="round" stroke-linejoin="round"/>
</svg>
