<svg width="42" height="42" viewBox="0 0 42 42" fill="none" xmlns="http://www.w3.org/2000/svg">
<path d="M20.9997 39.83C19.0922 39.83 17.2022 39.27 15.7147 38.1675L8.1897 32.55C6.1947 31.0625 4.63721 27.965 4.63721 25.48V12.4775C4.63721 9.78247 6.61474 6.91247 9.15224 5.96747L17.8847 2.69498C19.6172 2.04748 22.3472 2.04748 24.0797 2.69498L32.8297 5.96747C35.3672 6.91247 37.3447 9.78247 37.3447 12.4775V25.48C37.3447 27.965 35.7872 31.0625 33.7922 32.55L26.2672 38.1675C24.7972 39.27 22.9072 39.83 20.9997 39.83ZM18.8122 5.14496L10.0797 8.41746C8.57473 8.97746 7.26221 10.8675 7.26221 12.4775V25.48C7.26221 27.1425 8.43473 29.4699 9.74723 30.45L17.2722 36.0674C19.2847 37.5724 22.6972 37.5724 24.7097 36.0674L32.2347 30.45C33.5647 29.4524 34.7197 27.125 34.7197 25.48V12.4775C34.7197 10.885 33.4072 8.99496 31.9022 8.41746L23.1697 5.14496C22.0147 4.70746 19.9847 4.70746 18.8122 5.14496Z" fill="white"/>
<path d="M20.9998 20.4225C20.9648 20.4225 20.9298 20.4225 20.8773 20.4225C18.3398 20.3525 16.4849 18.41 16.4849 16.0475C16.4849 13.6325 18.4623 11.655 20.8773 11.655C23.2923 11.655 25.2698 13.6325 25.2698 16.0475C25.2523 18.4275 23.3973 20.3525 21.0348 20.44C21.0173 20.4225 21.0173 20.4225 20.9998 20.4225ZM20.8773 14.28C19.8973 14.28 19.1099 15.0675 19.1099 16.0475C19.1099 17.01 19.8624 17.78 20.8074 17.815C20.8074 17.815 20.8948 17.815 20.9998 17.815C21.9273 17.7625 22.6448 16.9925 22.6448 16.0475C22.6623 15.0675 21.8573 14.28 20.8773 14.28Z" fill="white"/>
<path d="M20.9994 30.3626C19.4944 30.3626 17.9719 29.9601 16.7994 29.1726C15.6269 28.4026 14.9619 27.2651 14.9619 26.0576C14.9619 24.8501 15.6269 23.7126 16.7994 22.9251C19.1619 21.3501 22.8544 21.3676 25.1994 22.9251C26.3719 23.6951 27.037 24.8326 27.037 26.0401C27.037 27.2476 26.3719 28.3851 25.1994 29.1726C24.0269 29.9601 22.5044 30.3626 20.9994 30.3626ZM18.2519 25.095C17.8144 25.375 17.5694 25.7251 17.5869 26.0401C17.5869 26.3551 17.8319 26.7051 18.2519 26.9851C19.7219 27.9651 22.2769 27.9651 23.7469 26.9851C24.1844 26.7051 24.4294 26.3551 24.4294 26.0401C24.4294 25.7251 24.1844 25.375 23.7644 25.095C22.2944 24.1325 19.7219 24.1325 18.2519 25.095Z" fill="white"/>
</svg>
