<svg width="300" height="300" viewBox="0 0 300 300" fill="none" xmlns="http://www.w3.org/2000/svg">
<path opacity="0.2" d="M207.344 217.663C245.655 179.082 248.539 117.53 213.785 80.1834C179.031 42.8365 119.8 43.8367 81.4891 82.4175C43.1782 120.998 40.2947 182.55 75.0487 219.897C109.803 257.244 169.033 256.244 207.344 217.663Z" fill="#ADFFD0"/>
<path opacity="0.2" d="M135.153 300C55.6483 300 -4.85049 232.707 0.306705 150C5.4639 67.293 74.3138 0 153.844 0C233.375 0 293.848 67.293 288.691 150C283.533 232.707 214.579 300 135.153 300ZM153.478 2.72331C75.4132 2.72331 7.79378 68.7908 2.7413 150C-2.31118 231.209 57.062 297.277 135.127 297.277C213.191 297.277 280.811 231.209 285.889 150C290.968 68.7908 231.647 2.72331 153.478 2.72331Z" fill="#27AE60"/>
<path d="M122.063 197.14L114.21 181.373C97.1934 147.032 58.0039 116.34 44.3125 107.407L57.2448 87.2821C73.4493 97.8485 105.832 124.02 126.147 155.12C163.713 108.823 216.804 61.1383 287.879 9.69495L299.999 28.7581C224.081 83.7146 169.446 133.96 133.11 182.38L122.063 197.14Z" fill="#27AE60"/>
</svg>
